<?xml version="1.0" encoding="utf-8"?>
<!-- Uploaded to: SVG Repo, www.svgrepo.com, Generator: SVG Repo Mixer Tools -->
<!DOCTYPE svg PUBLIC "-//W3C//DTD SVG 1.1//EN" "http://www.w3.org/Graphics/SVG/1.1/DTD/svg11.dtd">
<svg fill="#000000" width="800px" height="800px" viewBox="0 0 1000 1000" version="1.1" xmlns="http://www.w3.org/2000/svg" xmlns:xlink="http://www.w3.org/1999/xlink"  enable-background="new 0 0 1000 1000" xml:space="preserve">

<g>
<g transform="translate(0.000000,511.000000) scale(0.100000,-0.100000)">
<path d="M7841.8,4833.9c-117.6-46-117.6-48.6-109.9-976.7c7.7-846.3,10.2-882.1,66.5-1020.1c117.6-281.2,368.2-534.4,616.2-623.8c63.9-23,135.5-51.1,156-61.4c33.2-17.9,38.4-219.9,43.5-1539.2l2.5-1518.7l-86.9-92c-74.2-76.7-92.1-120.2-112.5-255.7c-12.8-89.5-40.9-792.6-66.5-1562.2l-43.5-1398.5l61.3-120.2c89.5-176.4,219.9-271,391.2-286.4c184.1-15.4,250.5,5.1,360.5,102.3c140.6,122.7,191.8,242.9,191.8,460.2c2.5,470.4-84.4,2804.7-107.4,2896.8c-15.3,58.8-61.3,135.5-112.5,184.1l-86.9,81.8V625.5v1523.8l71.6,15.3c143.2,35.8,375.9,173.9,493.5,294c143.2,145.7,268.5,386.1,304.3,582.9c12.8,74.1,25.6,483.2,25.6,907.6c0,874.4-2.5,884.6-176.4,884.6c-181.5,0-179,12.8-186.6-946c-7.7-963.9-10.2-974.1-214.7-1199.1c-79.3-92-250.6-207.1-304.3-207.1c-7.7,0-12.8,503.7-12.8,1119.8c0,613.6-10.2,1130.1-20.4,1145.4c-58.8,89.5-225,112.5-314.5,40.9l-56.3-48.6l2.5-1058.5c2.6-582.9-2.5-1089.2-10.2-1125c-10.2-53.7-25.6-66.5-63.9-56.2c-87,23-304.3,240.3-375.9,375.8l-69,130.4l-12.8,874.4c-10.2,733.8-17.9,882.1-51.1,912.7C7979.9,4841.6,7903.2,4859.5,7841.8,4833.9z"/>
<path d="M971.8,4657.5C534.6,4378.8,100,3302.4,100,2494.5c0-263.3,10.2-337.5,66.5-513.9c117.6-357.9,360.5-646.9,662.2-782.4l122.7-56.2V167.9v-976.7l-66.5-61.3C744.3-1000.6,746.9-972.5,690.6-2550c-56.2-1592.9-53.7-1623.5,71.6-1787.2c168.8-222.4,511.4-250.5,708.2-63.9c138.1,130.4,179,248,176.4,503.7c-7.7,490.9-84.4,2689.7-97.2,2799.6c-12.8,86.9-38.4,135.5-115.1,212.2l-99.7,99.7v953.7v953.7l117.6,40.9c378.4,127.8,667.3,478.1,790,948.6c102.3,404-7.7,1127.5-265.9,1728.4c-133,304.2-242.9,485.8-406.5,662.2C1347.7,4747,1181.5,4790.4,971.8,4657.5z"/>
<path d="M4612.7,2993.1C3367.5,2816.6,2385.7,1947.3,2058.5,725.2c-61.4-230.1-66.5-291.5-66.5-736.3c0-442.3,5.1-508.8,63.9-728.7c490.9-1817.8,2375.2-2763.8,4103.6-2060.7c319.6,130.4,621.3,329.8,894.9,588c294,278.7,455.1,490.9,618.7,807.9c263.3,511.3,345.2,892.3,327.3,1495.7c-7.7,337.5-23,455.1-79.3,664.8c-301.7,1117.3-1196.6,1963.6-2334.3,2198.8C5349,3005.8,4837.6,3023.7,4612.7,2993.1z M5668.6,2558.4c917.9-245.4,1649.1-981.8,1897.1-1907.3c58.8-222.4,66.5-301.7,66.5-662.2c0-357.9-7.7-439.8-66.5-654.5C7289.6-1703.7,6450.9-2463,5395-2631.8c-271-43.5-795.1-20.4-1048.3,46c-460.2,122.7-884.6,365.6-1217,692.9c-570.2,565-861.6,1370.4-774.7,2142.6c133,1176.1,946,2081.2,2099.1,2336.9C4753.3,2653,5369.4,2637.7,5668.6,2558.4z"/>
<path d="M4594.8,1880.9c-723.5-158.5-1286-698-1472.7-1413.9c-71.6-268.5-71.6-685.2,0-956.2c173.9-664.8,662.2-1171,1332.1-1380.6c161.1-48.6,245.4-58.8,536.9-58.8c291.5,0,375.8,10.2,536.9,58.8c675,212.2,1158.2,710.8,1344.8,1388.3c69,245.4,63.9,715.9-10.2,976.7c-199.4,708.2-759.4,1234.9-1475.3,1385.8C5170,1926.9,4801.9,1926.9,4594.8,1880.9z"/>
</g>
</g>
</svg>